<svg xmlns="http://www.w3.org/2000/svg" viewBox="0 0 512 512" role="img" aria-label="哈吉米猫头像">
  <defs>
    <radialGradient id="fur" cx="50%" cy="42%" r="62%">
      <stop offset="0" stop-color="#fff7e9"/>
      <stop offset="0.58" stop-color="#f1d2a9"/>
      <stop offset="1" stop-color="#b98758"/>
    </radialGradient>
    <radialGradient id="eye" cx="42%" cy="34%" r="64%">
      <stop offset="0" stop-color="#fff"/>
      <stop offset="0.18" stop-color="#fff"/>
      <stop offset="0.21" stop-color="#171417"/>
      <stop offset="0.62" stop-color="#060507"/>
      <stop offset="0.74" stop-color="#d6b63a"/>
      <stop offset="1" stop-color="#4c3710"/>
    </radialGradient>
    <filter id="softShadow" x="-20%" y="-20%" width="140%" height="140%">
      <feDropShadow dx="0" dy="9" stdDeviation="8" flood-color="#4c260a" flood-opacity=".28"/>
    </filter>
  </defs>
  <rect width="512" height="512" rx="96" fill="#fffaf2"/>
  <g filter="url(#softShadow)">
    <path d="M111 213C75 129 78 46 112 28c38-20 91 56 116 118h56C309 84 362 8 400 28c34 18 37 101 1 185 25 31 39 71 39 117 0 102-76 162-184 162S72 432 72 330c0-46 14-86 39-117Z" fill="url(#fur)"/>
    <path d="M105 198C86 130 91 75 114 61c24-14 66 47 86 101-36 4-68 16-95 36Z" fill="#e6a77d"/>
    <path d="M407 198c19-68 14-123-9-137-24-14-66 47-86 101 36 4 68 16 95 36Z" fill="#e6a77d"/>
    <path d="M174 94c20 26 31 59 35 95M232 86c8 35 11 73 8 113M338 94c-20 26-31 59-35 95M280 86c-8 35-11 73-8 113" fill="none" stroke="#5c3a22" stroke-width="14" stroke-linecap="round" opacity=".72"/>
    <ellipse cx="177" cy="272" rx="58" ry="70" fill="url(#eye)"/>
    <ellipse cx="335" cy="272" rx="58" ry="70" fill="url(#eye)"/>
    <ellipse cx="193" cy="235" rx="16" ry="11" fill="#fff"/>
    <ellipse cx="351" cy="235" rx="16" ry="11" fill="#fff"/>
    <path d="M236 335c11-12 29-12 40 0 3 4 2 10-2 13l-18 12-18-12c-4-3-5-9-2-13Z" fill="#ee8d87"/>
    <path d="M256 360c-2 24-16 35-37 36M256 360c2 24 16 35 37 36" fill="none" stroke="#87584d" stroke-width="9" stroke-linecap="round"/>
    <path d="M117 326c42 2 78 10 111 25M105 359c43-8 84-5 122 8M395 326c-42 2-78 10-111 25M407 359c-43-8-84-5-122 8" fill="none" stroke="#fff8ee" stroke-width="7" stroke-linecap="round"/>
  </g>
</svg>
